<svg xmlns="http://www.w3.org/2000/svg" viewBox="0 0 34.02 34.02"><title>Asset 2</title><g id="Layer_2" data-name="Layer 2"><g id="Isolation_Mode" data-name="Isolation Mode"><path d="M0,34H34V0H0Zm12.23-9.9H8.92V13.51h3.32Zm2-10.61H18v1.67a3.4,3.4,0,0,1,3.31-1.77c2.36,0,4.21,1.53,4.21,4.81v5.9H21.74V18.63c0-1.44-.59-2.42-1.88-2.42a1.9,1.9,0,0,0-1.79,1.3,2.44,2.44,0,0,0-.08.87v5.74H14.26S14.31,14.39,14.26,13.51Zm-3.74-5a1.85,1.85,0,1,1,0,3.68h0a1.84,1.84,0,0,1-2-1.84A1.86,1.86,0,0,1,10.51,8.5Z" style="fill:#2b508c"/></g></g></svg>