<?xml version="1.0" encoding="utf-8"?><svg id="Layer_1" xmlns="http://www.w3.org/2000/svg" viewBox="0 0 108 108"><style>.st0{stroke-width:2}.st0,.st1{fill:none;stroke:#424242;stroke-miterlimit:10}</style><path class="st0" d="M16.2 21c9.3-11.3 23.3-18.5 39-18.5 6 0 11.8 1.1 17.2 3M94.6 21.5C101.7 30.4 106 41.7 106 54c0 28.4-22.7 51.5-50.8 51.5S4.4 82.4 4.4 54c0-3.5.3-6.9 1-10.2"/><ellipse class="st1" cx="76.8" cy="7.8" rx="4.8" ry="4.9"/><ellipse class="st1" cx="13.5" cy="24.4" rx="4.8" ry="4.9"/><ellipse class="st1" cx="6.8" cy="38.9" rx="4.8" ry="4.9"/><ellipse class="st1" cx="92.1" cy="17.6" rx="4.8" ry="4.9"/><ellipse class="st1" cx="76.8" cy="7.8" rx="4.8" ry="4.9"/><ellipse class="st1" cx="13.5" cy="24.4" rx="4.8" ry="4.9"/><ellipse class="st1" cx="6.8" cy="38.9" rx="4.8" ry="4.9"/><ellipse class="st1" cx="92.1" cy="17.6" rx="4.8" ry="4.9"/></svg>