<svg xmlns="http://www.w3.org/2000/svg" viewBox="0 0 34.02 34.02"><title>Asset 6</title><g id="Layer_2" data-name="Layer 2"><g id="Isolation_Mode" data-name="Isolation Mode"><polygon points="23.53 13.34 23.53 10.83 23.53 10.46 23.16 10.46 20.65 10.47 20.66 13.35 23.53 13.34" style="fill:#2b508c"/><path d="M0,0V34H34V0ZM25.5,15.26v7a3.29,3.29,0,0,1-3.29,3.29H11.78a3.29,3.29,0,0,1-3.29-3.29V11.79A3.29,3.29,0,0,1,11.78,8.5H22.21a3.29,3.29,0,0,1,3.29,3.29Z" style="fill:#2b508c"/><path d="M17,21.5a4,4,0,1,0-4-4A4,4,0,0,0,17,21.5Z" style="fill:#2b508c"/></g></g></svg>