<svg id="Isolation_Mode" data-name="Isolation Mode" xmlns="http://www.w3.org/2000/svg" viewBox="0 0 751.97 751.97"><defs><style>.cls-1{fill:#fff}</style></defs><title>print</title><path class="cls-1" d="M1136.33 4371.91c-10-40.88-43.6-66.72-87.49-67.27-8.52-.1-17 0-26.46 0v-9.28c0-44.27.07-88.54 0-132.81-.05-22-6.41-41.8-21-58.68-14-16.18-31.37-26-52.53-29.27a25.29 25.29 0 0 1-4.08-1.35h-365.7c-4.44 1.09-8.94 2-13.32 3.32-33 9.9-53.57 31.87-61.78 65.15-1.79 7.26-2.15 15-2.19 22.53-.19 43.52-.09 87-.09 130.57v9.82c-8.83 0-17-.09-25.26 0-41.41.52-73.77 23.54-85.65 60.94-1.53 4.82-2.75 9.74-4.11 14.61v195.34c2.82 8.77 4.65 18 8.65 26.23 15.24 31.3 40.91 47.61 75.48 49.74 9.93.61 19.94.09 30.5.09.15 3.32.36 5.92.36 8.52 0 25.18-.15 50.37.06 75.55.25 29.31 11.1 53.71 34.66 71.79a81.28 81.28 0 0 0 38.62 16.38 22.12 22.12 0 0 1 4 1.38h365.7c9.7-3 20-4.84 29-9.36 32.79-16.6 48.22-44.33 48.59-80.67.25-24.95 0-49.9 0-74.84v-8.66c8.75 0 16.75-.18 24.75 0 52.14 1.39 85.73-37 90.29-73.55a9.6 9.6 0 0 1 1.22-2.62v-195.32c-.68-2.75-1.55-5.5-2.22-8.28zm-576.64-206.69c0-22.75 10.85-34.17 33.48-34.2q168.82-.23 337.63 0c22.79 0 33.56 11.23 33.6 34q.11 65.69 0 131.39v7.38H560.07c-.14-2.5-.38-4.85-.38-7.2q-.03-65.68 0-131.37zm404.72 567.44c0 23.73-10.72 34.78-34.34 34.79q-168.13.14-336.24 0c-23.18 0-34.13-11.26-34.14-34.32q-.05-108.66 0-217.31v-7.94h404.37c.13 3 .35 5.59.35 8.2q.03 108.3 0 216.58zm-23-315.57a33.22 33.22 0 1 1 33.22-33.22 33.22 33.22 0 0 1-33.22 33.22z" transform="translate(-386.67 -4073.24)"/></svg>