<svg xmlns="http://www.w3.org/2000/svg" viewBox="0 0 34.02 34.02"><title>Asset 5</title><g data-name="Layer 2"><path d="M0 34h34V0H0zm10.41-14.7a3.46 3.46 0 0 0 .66.06 3.41 3.41 0 0 0 .92-.12 3.5 3.5 0 0 1-2.8-3.43 3.49 3.49 0 0 0 1.58.44 3.5 3.5 0 0 1-1.08-4.67 9.92 9.92 0 0 0 7.2 3.65 3.5 3.5 0 0 1 6-3.19 7 7 0 0 0 2.22-.85 3.5 3.5 0 0 1-1.54 1.93 7 7 0 0 0 2-.55 7.08 7.08 0 0 1-1.74 1.81v.45A9.94 9.94 0 0 1 8.5 23.19a7.12 7.12 0 0 0 .83 0 7 7 0 0 0 4.34-1.5 3.5 3.5 0 0 1-3.26-2.37z" fill="#f3c828" data-name="Isolation Mode"/></g></svg>